<svg width="25" height="25" viewBox="0 0 25 25" fill="none" xmlns="http://www.w3.org/2000/svg">
<path d="M7.97626 0.0457184C6.3986 0.245979 4.64511 1.01283 3.38494 2.04343C3.0235 2.34138 2.32015 3.04473 2.01244 3.41105C1.397 4.15348 0.762035 5.32084 0.434782 6.32214C0.122182 7.27948 0.0293785 7.8363 0.00495664 8.95482C-0.029234 10.3811 0.107529 11.2114 0.600851 12.5741C0.991601 13.6585 1.11859 14.3081 1.11859 15.3045C1.11859 16.3644 0.952526 17.2485 0.576429 18.1472L0.385938 18.6015L0.581313 18.6503C1.69984 18.9531 3.087 18.6747 3.97107 17.9665C4.70373 17.3804 4.8063 17.3657 5.59757 17.7027C6.72586 18.1863 7.88834 18.4159 9.19735 18.4159C10.438 18.4159 11.4637 18.24 12.5334 17.8395C16.7779 16.2521 19.1908 11.7975 18.2579 7.27948C17.9892 5.99489 17.3005 4.52958 16.4653 3.48432C15.0049 1.64779 12.8216 0.39251 10.5357 0.0652575C9.97885 -0.0128931 8.54285 -0.0226627 7.97626 0.0457184ZM4.80141 8.04633C5.3045 8.27589 5.57803 8.69595 5.58291 9.24788C5.58291 9.53606 5.55849 9.62886 5.43638 9.85355C5.20193 10.2834 4.78188 10.5325 4.28855 10.5374C3.79035 10.5422 3.22376 10.1466 3.06258 9.68259C2.83301 9.00855 3.18957 8.26612 3.86361 8.01702C4.10783 7.9291 4.57673 7.94375 4.80141 8.04633ZM9.77859 8.07563C10.2182 8.28566 10.5112 8.74968 10.5112 9.22346C10.5112 9.58979 10.4184 9.83401 10.1791 10.0929C9.55391 10.7767 8.51354 10.6546 8.07395 9.85355C7.95184 9.63375 7.92741 9.53606 7.92741 9.24788C7.92741 8.70083 8.20094 8.28078 8.70403 8.04144C8.9629 7.92422 9.50018 7.93887 9.77859 8.07563ZM14.6679 8.07075C14.9609 8.20751 15.2882 8.5543 15.3663 8.82294C15.6154 9.64352 15.083 10.4543 14.2527 10.5276C13.0414 10.6399 12.3624 9.14531 13.2367 8.31008C13.6128 7.94864 14.199 7.85095 14.6679 8.07075Z" fill="#050505"/>
<path d="M19.9175 7.18668C19.9175 7.19645 19.9517 7.41625 19.9908 7.67512C20.318 9.88774 19.898 12.3104 18.8332 14.3032C16.9283 17.8639 13.2161 20.0814 9.17675 20.0619C8.83972 20.0619 8.38548 20.0424 8.17056 20.0179C7.95565 19.9984 7.77005 19.9886 7.76028 19.9984C7.73097 20.0277 8.19987 20.7506 8.5027 21.1365C9.88986 22.8851 11.8143 24.0573 14.0562 24.5164C14.5544 24.619 14.7498 24.6337 15.7902 24.6337C16.728 24.6337 17.0601 24.6141 17.4509 24.5409C18.0712 24.4285 18.8967 24.1794 19.4291 23.9499C20.0054 23.6959 20.1031 23.6763 20.3131 23.7301C20.4157 23.7594 20.6795 23.9254 20.9041 24.1062C21.6807 24.7216 22.4622 25 23.4294 25C23.9324 25 24.5088 24.917 24.5918 24.8388C24.6065 24.8193 24.5674 24.6923 24.5088 24.5506C24.079 23.5591 23.9031 22.6799 23.9031 21.5809C23.9031 20.6089 23.9715 20.2231 24.3378 19.0411C24.8898 17.2631 25.0168 16.4523 24.9826 14.987C24.9533 13.8734 24.88 13.4289 24.5723 12.4716C23.9471 10.5276 22.6332 8.82295 20.8895 7.69465C20.3864 7.3674 19.9175 7.12318 19.9175 7.18668Z" fill="#050505"/>
</svg>
