<svg width="21" height="21" viewBox="0 0 21 21" fill="none" xmlns="http://www.w3.org/2000/svg">
<path d="M15.1035 0.440974L5.06229 3.77692C-1.68743 6.03424 -1.68743 9.7149 5.06229 11.9611L8.0424 12.9508L9.03206 15.9309C11.2783 22.6806 14.97 22.6806 17.2162 15.9309L20.5633 5.9008C22.0534 1.39728 19.607 -1.0602 15.1035 0.440974ZM15.4593 6.42343L11.2338 10.6712C11.067 10.838 10.8557 10.9158 10.6444 10.9158C10.4332 10.9158 10.2219 10.838 10.0551 10.6712C9.73261 10.3487 9.73261 9.81498 10.0551 9.4925L14.2806 5.24473C14.6031 4.92226 15.1368 4.92226 15.4593 5.24473C15.7818 5.56721 15.7818 6.10096 15.4593 6.42343Z" fill="#050505"/>
</svg>
