<svg width="20" height="20" viewBox="0 0 20 20" fill="none" xmlns="http://www.w3.org/2000/svg">
<path d="M2.78844 1.53911L2.65563 1.67193V2.16411V2.6563H2.16344H1.67126L1.53844 2.78911C1.42126 2.9063 1.40563 2.94536 1.40563 3.12505C1.40563 3.30474 1.42126 3.3438 1.53844 3.46099L1.67126 3.5938H2.16344H2.65563V4.08599V4.57818L2.78844 4.71099C2.90563 4.82818 2.94469 4.8438 3.12438 4.8438C3.30407 4.8438 3.34313 4.82818 3.46032 4.71099L3.59313 4.57818V4.08599V3.5938H4.08532H4.57751L4.71032 3.46099C4.82751 3.3438 4.84313 3.30474 4.84313 3.12505C4.84313 2.94536 4.82751 2.9063 4.71032 2.78911L4.57751 2.6563H4.08532H3.59313V2.16411V1.67193L3.46032 1.53911C3.34313 1.42193 3.30407 1.4063 3.12438 1.4063C2.94469 1.4063 2.90563 1.42193 2.78844 1.53911Z" fill="white"/>
<path d="M13.8158 1.7579C13.4213 1.82431 13.2729 1.93759 12.2963 2.91806L11.3666 3.84775L13.2612 5.74228L15.1557 7.63681L16.0893 6.69931C17.2026 5.57431 17.2455 5.51181 17.2455 4.92196C17.2455 4.3165 17.2143 4.27353 16.0229 3.07431C15.4721 2.51572 14.9565 2.02353 14.8822 1.97665C14.5815 1.78134 14.1713 1.69931 13.8158 1.7579Z" fill="white"/>
<path d="M7.16368 2.78915L7.03087 2.92197V3.41415V3.90634H6.53868H6.04649L5.91368 4.03915C5.79649 4.15634 5.78087 4.1954 5.78087 4.37509C5.78087 4.55478 5.79649 4.59384 5.91368 4.71103L6.04649 4.84384H6.53868H7.03087V5.33603V5.82822L7.16368 5.96103C7.28087 6.07822 7.31993 6.09384 7.49962 6.09384C7.6793 6.09384 7.71837 6.07822 7.83555 5.96103L7.96837 5.82822V5.33603V4.84384H8.46055H8.95274L9.08555 4.71103C9.20274 4.59384 9.21837 4.55478 9.21837 4.37509C9.21837 4.1954 9.20274 4.15634 9.08555 4.03915L8.95274 3.90634H8.46055H7.96837V3.41415V2.92197L7.83555 2.78915C7.71837 2.67197 7.6793 2.65634 7.49962 2.65634C7.31993 2.65634 7.28087 2.67197 7.16368 2.78915Z" fill="white"/>
<path d="M6.81186 8.40646C4.65952 10.5627 2.87827 12.3635 2.85483 12.4143C2.78452 12.5471 2.22593 15.7658 2.22593 16.0197C2.22593 16.4533 2.55796 16.7736 3.00717 16.7697C3.20639 16.7658 6.14389 16.2619 6.50327 16.1682C6.63999 16.133 7.16342 15.6213 10.5853 12.2033L14.5111 8.28146L12.6165 6.38693L10.722 4.4924L6.81186 8.40646Z" fill="white"/>
<path d="M16.5383 9.66415L16.4055 9.79696V10.2892V10.7813H15.9133H15.4211L15.2883 10.9142C15.1711 11.0313 15.1555 11.0704 15.1555 11.2501C15.1555 11.4298 15.1711 11.4688 15.2883 11.586L15.4211 11.7188H15.9133H16.4055V12.211V12.7032L16.5383 12.836C16.6555 12.9532 16.6946 12.9688 16.8742 12.9688C17.0539 12.9688 17.093 12.9532 17.2102 12.836L17.343 12.7032V12.211V11.7188H17.8352H18.3274L18.4602 11.586C18.5774 11.4688 18.593 11.4298 18.593 11.2501C18.593 11.0704 18.5774 11.0313 18.4602 10.9142L18.3274 10.7813H17.8352H17.343V10.2892V9.79696L17.2102 9.66415C17.093 9.54696 17.0539 9.53134 16.8742 9.53134C16.6946 9.53134 16.6555 9.54696 16.5383 9.66415Z" fill="white"/>
<path d="M13.4134 13.4141L13.2806 13.547V14.0391V14.5313H12.7884H12.2962L12.1634 14.6641C12.0462 14.7813 12.0306 14.8204 12.0306 15.0001C12.0306 15.1798 12.0462 15.2188 12.1634 15.336L12.2962 15.4688H12.7884H13.2806V15.961V16.4532L13.4134 16.586C13.5306 16.7032 13.5697 16.7188 13.7494 16.7188C13.9291 16.7188 13.9681 16.7032 14.0853 16.586L14.2181 16.4532V15.961V15.4688H14.7103H15.2025L15.3353 15.336C15.4525 15.2188 15.4681 15.1798 15.4681 15.0001C15.4681 14.8204 15.4525 14.7813 15.3353 14.6641L15.2025 14.5313H14.7103H14.2181V14.0391V13.547L14.0853 13.4141C13.9681 13.297 13.9291 13.2813 13.7494 13.2813C13.5697 13.2813 13.5306 13.297 13.4134 13.4141Z" fill="white"/>
</svg>
