<svg width="24" height="21" viewBox="0 0 24 21" fill="none" xmlns="http://www.w3.org/2000/svg">
<path d="M5.98303 4.57228C2.71578 7.08844 0.0259289 9.17272 0.00245729 9.21027C-0.0257087 9.25722 0.185536 9.56704 0.777022 10.3369C1.22768 10.919 1.61261 11.3978 1.63608 11.4025C1.65486 11.4025 3.99733 9.61399 6.83271 7.43112L11.9918 3.46441L17.1508 7.43112C19.9862 9.61399 22.3287 11.4025 22.3475 11.4025C22.3991 11.3978 23.9811 9.3511 23.9999 9.26661C24.0093 9.22905 23.2535 8.61879 22.324 7.90056L20.6293 6.60023V4.42206V2.24858H18.869H17.1086L17.0992 3.0607L17.0851 3.87282L14.5737 1.93876C13.1935 0.873144 12.0293 0 11.9918 0C11.9542 0 9.25029 2.05612 5.98303 4.57228Z" fill="#F3AE9F"/>
<path d="M7.80033 8.38398L3.68341 11.562L3.69279 15.8339L3.70688 20.1104L7.05393 20.1245L10.3963 20.1339V16.9887V13.8435H12.1332H13.8701V16.9887V20.1339L17.0763 20.1245L20.2779 20.1104L20.2919 15.8339L20.3013 11.562L16.175 8.38398C13.903 6.63769 12.0158 5.20592 11.983 5.21061C11.9501 5.21061 10.0677 6.63769 7.80033 8.38398Z" fill="#F3AE9F"/>
</svg>
