<svg width="132" height="32" viewBox="0 0 132 32" fill="none" xmlns="http://www.w3.org/2000/svg">
<path d="M100.485 0.0749987C100.51 0.112499 103.254 4.11249 106.585 8.95623C109.91 13.8 112.635 17.775 112.635 17.7875C112.635 17.8 101.391 30.8937 100.522 31.8874C100.435 31.9937 100.504 31.9999 101.86 31.9999H103.297L108.61 25.8187L113.929 19.6437L118.172 25.8187L122.416 31.9999H127.122C130.872 31.9999 131.822 31.9812 131.779 31.9187C131.754 31.8812 128.929 27.7562 125.497 22.7625C122.06 17.7687 119.241 13.65 119.222 13.6062C119.197 13.5312 120.716 11.75 128.741 2.41874L130.829 0H129.391H127.954L122.935 5.83749C120.172 9.04373 117.897 11.6625 117.879 11.65C117.86 11.6437 116.047 9.01248 113.847 5.81874L109.854 0H105.147C101.516 0 100.454 0.0187492 100.485 0.0749987ZM117.979 15.7312C123.204 23.2125 127.585 29.4812 127.716 29.6687L127.954 29.9999H125.872L123.791 29.9937L114.291 16.4C109.066 8.91873 104.685 2.64999 104.554 2.46249L104.31 2.125H106.397L108.479 2.13125L117.979 15.7312Z" fill="#F3AE9F"/>
<path d="M59.779 0.0725859C56.2107 0.679833 53.381 3.41557 52.6048 7.00897C52.4983 7.48475 52.4921 8.12956 52.4921 16.005C52.4921 23.8804 52.4983 24.5252 52.6048 25.001C52.9741 26.7351 53.7817 28.2188 55.0275 29.4646C56.2733 30.7104 57.757 31.518 59.4911 31.8873C59.9669 31.9937 60.6117 32 68.4871 32C76.3625 32 77.0073 31.9937 77.4831 31.8873C79.2172 31.518 80.7009 30.7104 81.9467 29.4646C83.1925 28.2188 84.0001 26.7351 84.3694 25.001C84.4758 24.5252 84.4821 23.8804 84.4821 16.005C84.4821 8.12956 84.4758 7.48475 84.3694 7.00897C84.0001 5.27488 83.1925 3.79119 81.9467 2.5454C80.7259 1.32464 79.3299 0.560887 77.5332 0.122667C77.1325 0.0225029 76.3625 0.0162429 68.6749 0.00372314C62.0453 -0.00879668 60.1547 0.00998304 59.779 0.0725859ZM76.8446 2.00701C78.3408 2.2762 79.4488 2.85841 80.5444 3.9477C81.6337 5.04325 82.2159 6.15132 82.4851 7.64752C82.6165 8.39249 82.6165 23.6175 82.4851 24.3625C82.2159 25.8587 81.6337 26.9667 80.5444 28.0623C79.4488 29.1516 78.3408 29.7338 76.8446 30.003C76.0996 30.1344 60.8746 30.1344 60.1296 30.003C58.6334 29.7338 57.5254 29.1516 56.4298 28.0623C55.3405 26.9667 54.7583 25.8587 54.4891 24.3625C54.3576 23.6175 54.3576 8.39249 54.4891 7.64752C54.7583 6.15132 55.3405 5.04325 56.4298 3.9477C57.5066 2.87719 58.6146 2.28872 60.067 2.01327C60.7431 1.88807 76.1372 1.88181 76.8446 2.00701Z" fill="#F3AE9F"/>
<path d="M77.2583 4.05422C76.5572 4.19195 75.8185 4.72407 75.4679 5.34384C74.9483 6.27662 75.0297 7.5099 75.662 8.32373C76.1691 8.9748 76.8264 9.31286 77.6715 9.35668C79.0863 9.42554 80.2257 8.49902 80.4573 7.09046C80.7641 5.2562 79.1114 3.69113 77.2583 4.05422ZM78.2162 6.08255C78.2975 6.1389 78.4165 6.28914 78.4791 6.41435C78.573 6.61468 78.573 6.67102 78.4979 6.89013C78.3977 7.17184 78.0784 7.42851 77.8343 7.42851C77.5714 7.42851 77.2709 7.2407 77.1644 7.02159C77.033 6.74614 77.0392 6.56459 77.1895 6.31418C77.4148 5.94483 77.8593 5.85092 78.2162 6.08255Z" fill="#F3AE9F"/>
<path d="M67.4849 7.24063C66.3769 7.37836 65.3752 7.68511 64.4237 8.18593C62.0135 9.44425 60.2919 11.7731 59.8098 14.44C59.6596 15.2413 59.6596 16.7688 59.8098 17.5701C60.4609 21.1635 63.3281 24.0307 66.9215 24.6818C67.7228 24.832 69.2503 24.832 70.0516 24.6818C73.645 24.0307 76.5123 21.1635 77.1633 17.5701C77.3136 16.7688 77.3136 15.2413 77.1633 14.44C76.6813 11.7731 74.9722 9.45677 72.5495 8.17967C71.8421 7.81032 70.8467 7.47226 70.083 7.33454C69.3818 7.20933 68.1047 7.16551 67.4849 7.24063ZM69.6635 9.25018C70.1205 9.31904 71.0783 9.63206 71.5228 9.85743C72.7811 10.4897 74.0019 11.7105 74.6342 12.9688C74.8595 13.407 75.1726 14.3586 75.2539 14.8594C75.3416 15.404 75.3416 16.606 75.2539 17.1506C75.1726 17.6515 74.8595 18.603 74.6342 19.0413C74.0019 20.2996 72.7811 21.5203 71.5228 22.1526C71.0846 22.378 70.133 22.691 69.6322 22.7724C69.0876 22.86 67.8856 22.86 67.3409 22.7724C66.8401 22.691 65.8886 22.378 65.4503 22.1526C64.192 21.5203 62.9713 20.2996 62.339 19.0413C62.1136 18.603 61.8006 17.6515 61.7192 17.1506C61.6316 16.606 61.6316 15.404 61.7192 14.8594C61.8006 14.3586 62.1136 13.407 62.339 12.9688C63.0652 11.5227 64.4111 10.2643 65.8447 9.68214C67.1031 9.1688 68.2675 9.03733 69.6635 9.25018Z" fill="#F3AE9F"/>
<path d="M34.2119 0.0968493C33.8554 0.218042 1.66114 12.6295 1.01954 12.9004C0.370804 13.1713 -0.00702984 13.7559 9.91038e-05 14.5044C9.91038e-05 15.0605 0.19258 15.4954 0.570414 15.8019C0.741509 15.9374 2.08175 16.472 4.805 17.4915L8.79721 18.9814L10.1232 23.2445C10.8503 25.5971 11.549 27.8427 11.6773 28.249C11.9268 29.0617 12.1977 29.4396 12.711 29.7033C13.0746 29.8887 13.7732 29.8958 14.151 29.7176C14.3008 29.6463 15.4913 28.7124 16.8101 27.6431C18.6138 26.1745 19.2482 25.6969 19.3908 25.6969C19.5334 25.6969 20.7025 26.5096 23.6753 28.6696C25.9209 30.3022 27.9028 31.7208 28.0739 31.8135C28.4588 32.0345 29.0363 32.063 29.521 31.8777C29.9203 31.7208 30.3694 31.2432 30.4906 30.8511C30.7258 30.0455 36.4931 2.01453 36.4931 1.67234C36.486 0.48894 35.3668 -0.280986 34.2119 0.0968493ZM34.9675 1.62244C34.9961 1.69373 29.1717 29.9172 29.0363 30.3449C29.0149 30.4162 28.9507 30.4733 28.8937 30.4733C28.8367 30.4733 26.976 29.1473 24.7446 27.529C22.5204 25.9179 20.5243 24.4992 20.3033 24.3923C20.0039 24.2426 19.8043 24.1927 19.4764 24.1927C18.571 24.1855 18.6637 24.1285 15.5412 26.6807C14.4291 27.5932 13.4809 28.3346 13.431 28.3346C13.3811 28.3346 13.3098 28.249 13.2671 28.135C13.2243 28.028 12.4971 25.7111 11.6488 22.9879C10.5082 19.3165 10.0662 17.9905 9.94497 17.8693C9.84516 17.7624 8.45502 17.2134 5.86722 16.251C3.71428 15.4455 1.84649 14.7397 1.7253 14.6827C1.48292 14.5757 1.41876 14.4118 1.57559 14.3405C2.1673 14.0767 34.7109 1.53689 34.8036 1.53689C34.8749 1.52977 34.9462 1.57254 34.9675 1.62244Z" fill="#F3AE9F"/>
<path d="M27.3335 6.47024C25.8222 7.35423 12.2344 15.7806 12.0562 15.9517C11.5714 16.4151 11.2577 17.2635 11.3647 17.848C11.4431 18.2829 13.0471 23.9361 13.154 24.1429C13.2111 24.2498 13.3679 24.4209 13.5033 24.5278C13.8313 24.7702 14.3802 24.7987 14.7509 24.5849C15.1715 24.3496 15.2856 24.0074 15.5351 22.1397C15.6777 21.0347 15.806 20.3503 15.9058 20.1293C16.027 19.8299 16.9038 18.9958 22.4288 13.8558C26.7347 9.84936 28.8448 7.84613 28.909 7.68216C29.0373 7.38275 29.0373 7.22591 28.8947 6.87659C28.6666 6.32054 27.9323 6.12806 27.3335 6.47024ZM23.6977 10.5765C23.6193 10.6478 21.6945 12.43 19.4204 14.5402C17.1462 16.6504 15.1501 18.5395 14.9862 18.7391C14.8151 18.9388 14.6012 19.2738 14.5014 19.4806C14.3374 19.8299 14.1093 20.8493 14.1093 21.2699C14.1093 21.3697 14.0808 21.498 14.0523 21.5479C13.9881 21.6478 12.8974 17.8694 12.8974 17.5486C12.8974 17.4417 12.9829 17.2635 13.097 17.1423C13.2396 16.9783 23.6264 10.491 23.8047 10.4482C23.8189 10.4411 23.7761 10.4981 23.6977 10.5765Z" fill="#F3AE9F"/>
<path d="M29.7927 15.9159C29.5717 16.144 29.3935 16.7927 29.4719 17.1349C29.5717 17.5912 30.1349 17.8336 30.5697 17.6054C30.8692 17.4557 31.026 17.0922 31.0331 16.5147C31.0403 16.1012 31.0189 16.0442 30.8406 15.8874C30.5484 15.6307 30.0636 15.645 29.7927 15.9159Z" fill="#F3AE9F"/>
<path d="M29.0568 19.281C28.957 19.3951 28.8572 19.5519 28.8358 19.6161C28.8215 19.6874 28.4294 21.4696 27.9732 23.5869C27.3886 26.2959 27.1533 27.4936 27.189 27.6647C27.2318 27.9142 27.4884 28.1637 27.7664 28.235C28.0231 28.2992 28.3938 28.1423 28.5292 27.9142C28.6932 27.629 30.3899 19.8228 30.3329 19.5947C30.2473 19.2525 29.9764 19.0672 29.5843 19.0672C29.2849 19.0672 29.2065 19.0957 29.0568 19.281Z" fill="#F3AE9F"/>
</svg>
