<svg width="20" height="20" viewBox="0 0 20 20" fill="none" xmlns="http://www.w3.org/2000/svg">
<path d="M10.4787 0.079219C10.1584 0.270631 10.1389 0.473762 10.3459 1.25504C10.5451 1.99725 10.5608 2.03631 10.7053 2.17303C10.7991 2.26288 10.8616 2.28632 11.0647 2.29804C11.3772 2.31757 11.5413 2.216 11.6585 1.93865L11.7366 1.75114L11.5686 1.09878C11.3733 0.340946 11.3147 0.208129 11.135 0.090938C10.9631 -0.026253 10.6584 -0.0301592 10.4787 0.079219Z" fill="white"/>
<path d="M13.7995 1.21995C13.7331 1.27073 13.2526 1.88013 12.7331 2.57937C12.2135 3.27861 11.7643 3.87237 11.7408 3.89972C11.7018 3.93878 11.3971 3.82159 10.1705 3.29423C8.93607 2.76297 8.61965 2.64187 8.47512 2.64187C8.11964 2.64578 7.88916 2.87234 7.88916 3.2161C7.88916 3.37627 7.99463 3.65752 8.53371 4.91147C8.88919 5.73571 9.17826 6.42714 9.17826 6.44667C9.17826 6.4623 8.57278 6.92715 7.83447 7.47795C6.39302 8.5522 6.36568 8.57955 6.36568 8.9194C6.36568 9.13034 6.48678 9.32957 6.67819 9.42723C6.77585 9.4741 7.27586 9.54833 8.44777 9.68505C9.35014 9.79052 10.0924 9.88818 10.1002 9.89599C10.1119 9.90771 10.2056 10.6499 10.3111 11.5484C10.4517 12.732 10.526 13.2242 10.5728 13.3219C10.6705 13.5133 10.8697 13.6344 11.0807 13.6344C11.4205 13.6344 11.4479 13.607 12.5221 12.1656C13.0729 11.4273 13.5378 10.8218 13.5534 10.8218C13.5729 10.8218 14.2644 11.1109 15.0886 11.4664C16.3425 12.0054 16.6238 12.1109 16.784 12.1109C17.1277 12.1109 17.3543 11.8804 17.3582 11.5249C17.3582 11.3804 17.2371 11.064 16.7058 9.82958C16.1746 8.59908 16.0613 8.29829 16.1003 8.25922C16.1277 8.23579 16.7215 7.78655 17.4207 7.26701C18.1199 6.75137 18.7293 6.27088 18.7801 6.20057C18.8934 6.04041 18.9012 5.70837 18.7918 5.53258C18.6473 5.2982 18.6043 5.29039 16.8074 5.07554C15.8894 4.96616 15.1316 4.8724 15.1277 4.8724C15.1277 4.8685 15.0339 4.11066 14.9245 3.18876C14.7097 1.38402 14.698 1.34495 14.4597 1.20042C14.2878 1.10276 13.9557 1.11057 13.7995 1.21995Z" fill="white"/>
<path d="M17.3212 1.87277C17.1376 1.95871 16.2704 2.82593 16.2118 2.98609C16.0517 3.40016 16.3251 3.82986 16.747 3.82986C17.0126 3.82986 17.1337 3.74783 17.6416 3.23219C18.1494 2.72046 18.2353 2.56811 18.1845 2.29076C18.1338 2.02903 17.8525 1.79855 17.5869 1.79855C17.5283 1.79855 17.4072 1.83371 17.3212 1.87277Z" fill="white"/>
<path d="M5.51129 5.04053C5.44097 5.0835 5.35112 5.17335 5.30815 5.24366C5.15971 5.48585 5.23784 5.90384 5.4566 6.04837C5.60504 6.14603 6.7457 6.44682 6.96836 6.44682C7.09727 6.44682 7.20665 6.41948 7.29259 6.36869C7.42931 6.28275 7.57385 6.02493 7.57385 5.86087C7.57385 5.71242 7.43712 5.44679 7.32384 5.37257C7.18712 5.28272 5.99177 4.9624 5.79645 4.9624C5.71051 4.9624 5.58551 4.99756 5.51129 5.04053Z" fill="white"/>
<path d="M18.0178 8.36082C17.7756 8.4702 17.6858 8.63427 17.7014 8.93506C17.7131 9.13819 17.7366 9.19678 17.8264 9.29444C17.9631 9.43898 18.0022 9.4546 18.7444 9.65383C19.3811 9.8218 19.5569 9.83352 19.7483 9.70852C20.0804 9.49367 20.0843 8.91162 19.7562 8.69677C19.6585 8.63427 18.3889 8.28269 18.26 8.28269C18.2171 8.28269 18.1077 8.31785 18.0178 8.36082Z" fill="white"/>
<path d="M3.79715 14.5017C1.18769 17.1151 0.0314092 18.2987 0.0118774 18.3729C0.000158279 18.4315 -0.00374809 18.5722 0.00406465 18.6815C0.0235965 18.873 0.0353156 18.8847 0.574394 19.4277L1.12519 19.9785L1.35567 19.9941C1.51583 20.0058 1.6213 19.9902 1.69943 19.9511C1.76193 19.916 3.49245 18.205 5.5472 16.1463L9.28169 12.404L9.19184 11.6657C9.14106 11.2595 9.09418 10.9235 9.08637 10.9157C9.06293 10.8923 7.85196 10.7438 7.69179 10.7438C7.56288 10.7438 7.35975 10.9391 3.79715 14.5017Z" fill="white"/>
<path d="M13.8648 12.5092C13.6578 12.6147 13.5445 12.7904 13.5445 13.017C13.5406 13.2201 13.8453 14.3647 13.9429 14.5249C14.0835 14.7553 14.5054 14.8413 14.7554 14.6889C14.9234 14.5835 15.0367 14.3921 15.0367 14.2006C15.0367 14.0053 14.7164 12.81 14.6265 12.6733C14.5523 12.56 14.2867 12.4272 14.1382 12.4232C14.0835 12.4232 13.9585 12.4623 13.8648 12.5092Z" fill="white"/>
</svg>
